<?xml version="1.0" standalone="no"?>
<!DOCTYPE svg PUBLIC "-//W3C//DTD SVG 20010904//EN"
 "http://www.w3.org/TR/2001/REC-SVG-20010904/DTD/svg10.dtd">
<svg version="1.0" xmlns="http://www.w3.org/2000/svg"
 width="180.000000pt" height="180.000000pt" viewBox="0 0 180.000000 180.000000"
 preserveAspectRatio="xMidYMid meet">
<metadata>
Created by potrace 1.11, written by Peter Selinger 2001-2013
</metadata>
<g transform="translate(0.000000,180.000000) scale(0.100000,-0.100000)"
fill="#000000" stroke="none">
<path d="M0 900 l0 -900 900 0 900 0 0 900 0 900 -900 0 -900 0 0 -900z m708
153 c44 -115 107 -277 140 -360 l60 -153 -73 0 -73 0 -25 67 -25 68 -164 3
-165 2 -25 -67 -25 -68 -71 -3 c-40 -2 -72 -1 -72 2 0 6 234 609 263 679 l16
37 79 0 79 0 81 -207z m761 174 c56 -37 85 -100 79 -169 -6 -55 -28 -92 -77
-125 l-32 -22 30 -15 c54 -28 85 -81 89 -151 5 -78 -20 -133 -80 -172 l-41
-28 -224 -3 -223 -3 0 361 0 361 218 -3 219 -3 42 -28z"/>
<path d="M482 958 l-60 -163 120 -3 c67 -1 123 -1 125 2 5 4 -106 307 -117
319 -4 5 -35 -65 -68 -155z"/>
<path d="M1120 1055 l0 -95 104 0 c56 0 117 5 135 11 68 24 80 122 18 159 -27
17 -51 20 -144 20 l-113 0 0 -95z"/>
<path d="M1120 751 l0 -101 110 0 c158 0 200 22 200 104 0 22 -9 45 -24 63
-24 28 -26 28 -155 31 l-131 4 0 -101z"/>
</g>
</svg>
